<?xml version="1.0" encoding="utf-8"?><svg version="1.1" id="Layer_1" xmlns="http://www.w3.org/2000/svg" xmlns:xlink="http://www.w3.org/1999/xlink" x="0px" y="0px" viewBox="0 0 114.98 122.88" style="enable-background:new 0 0 114.98 122.88" xml:space="preserve"><style type="text/css">.st0{fill-rule:evenodd;clip-rule:evenodd;}</style><g><path class="st0" d="M35.54,27.99c4.78,0.59,9.92-0.51,15.46-3.5c-0.55,4.13-0.59,8.62-0.09,13.5c-2.69-0.22-5.38-0.77-8.07-1.59 c-20.7-6.5-35.42,6.58-38.76,24.53H1.41l-0.11,0C0.53,61-0.05,61.68,0,62.45L1.86,86.3c0.02,0.76,0.65,1.37,1.42,1.37h4.08 c0.69,1.57,1.47,3.13,2.34,4.67c4.97,8.73,10.99,17.72,20.33,25.89c8.88,6.36,16.7,5.49,23.93,1.55 c5.75,2.73,11.83,3.81,18.35,1.36c0.97-0.36,1.94-0.84,2.91-1.4h38.34v0c0.41,0,0.82-0.18,1.1-0.52c0.49-0.6,0.4-1.49-0.2-1.99 l-12.71-10.32l12.61-9.5c0.38-0.25,0.63-0.69,0.63-1.18c0-0.78-0.63-1.42-1.42-1.42l-17.43,0l0.18-0.34 c1.15-2.21,2.22-4.49,3.17-6.81h1.66c0.65,0,1.24-0.45,1.38-1.12l5.23-23.84c0.03-0.12,0.05-0.24,0.05-0.36 c0-0.78-0.63-1.42-1.42-1.42h-2.67c-1.34-8.96-6.2-17.01-16.37-22.45c-6.13-3.29-13.79-4.25-23.5-2.07 c-2.31,0.79-4.61,1.29-6.92,1.53c0-0.05-0.01-0.1-0.01-0.14c-0.81-7.45-0.24-13.82,1.54-19.23c1.74-5.3,4.67-9.72,8.62-13.37 c1.22-1.12,1.29-3.01,0.18-4.23c-1.12-1.22-3.01-1.29-4.23-0.18c-4.7,4.34-8.18,9.6-10.26,15.92c-0.27,0.82-0.52,1.66-0.74,2.52 c-6-10.65-16.17-16.16-32.91-13.6l-6.56,0.68C17.35,16.3,23.28,26.49,35.54,27.99L35.54,27.99L35.54,27.99z M94.21,84.84v-5.5 c0-0.79,0.64-1.42,1.42-1.42s1.42,0.64,1.42,1.42v5.5H100l4.63-21.07H2.94l1.64,21.07H8.7v-8.34c0-0.78,0.63-1.42,1.42-1.42 c0.78,0,1.42,0.63,1.42,1.42v8.34h6.73v-5.5c0-0.79,0.64-1.42,1.42-1.42c0.78,0,1.42,0.64,1.42,1.42v5.5h6.28v-8.34 c0-0.78,0.63-1.42,1.42-1.42c0.78,0,1.42,0.63,1.42,1.42v8.34h6.73v-5.5c0-0.79,0.64-1.42,1.42-1.42c0.79,0,1.42,0.64,1.42,1.42 v5.5h7.39v-8.34c0-0.78,0.63-1.42,1.42-1.42c0.78,0,1.42,0.63,1.42,1.42v8.34h6.73v-5.5c0-0.79,0.64-1.42,1.42-1.42 c0.79,0,1.42,0.64,1.42,1.42v5.5h6.28v-8.34c0-0.78,0.63-1.42,1.42-1.42c0.78,0,1.42,0.63,1.42,1.42v8.34h6.73v-5.5 c0-0.79,0.64-1.42,1.42-1.42c0.79,0,1.42,0.64,1.42,1.42v5.5h6.35v-8.34c0-0.78,0.63-1.42,1.42-1.42c0.78,0,1.42,0.63,1.42,1.42 v8.34H94.21L94.21,84.84z M24.62,87.67l-5.08,0c1.28,2.77,2.87,5.34,4.7,7.75c2.65,3.48,5.83,6.6,9.36,9.49 c0.97,0.79,2.4,0.64,3.2-0.33c0.79-0.97,0.64-2.4-0.33-3.2c-3.26-2.66-6.19-5.54-8.62-8.72C26.65,91.08,25.56,89.42,24.62,87.67 L24.62,87.67z M109.34,97.66H94.56c-3.69,6.36-9.29,14.22-15.35,19.26h30.37l-10.95-8.89c-0.11-0.08-0.22-0.18-0.31-0.3 c-0.47-0.62-0.35-1.51,0.28-1.98L109.34,97.66L109.34,97.66z"/></g></svg>