<?xml version="1.0" encoding="utf-8"?><svg version="1.1" id="Layer_1" xmlns="http://www.w3.org/2000/svg" xmlns:xlink="http://www.w3.org/1999/xlink" x="0px" y="0px" viewBox="0 0 111.58 122.88" style="enable-background:new 0 0 111.58 122.88" xml:space="preserve"><style type="text/css"><![CDATA[
	.st0{fill:#FFFFFF;}
	.st1{fill:#006BA3;}
	.st2{fill-rule:evenodd;clip-rule:evenodd;fill:#0077B5;}
]]></style><g><path class="st2" d="M105.55,0H6.03C2.71,0,0,2.71,0,6.03v110.82c0,3.32,2.71,6.03,6.03,6.03h99.52c3.32,0,6.03-2.71,6.03-6.03 l0-110.82C111.58,2.71,108.87,0,105.55,0L105.55,0L105.55,0z"/><path class="st0" d="M23.02,99.58l3.68-0.26c0.08,0.67,0.24,1.19,0.49,1.54c0.4,0.57,0.97,0.86,1.71,0.86 c0.55,0,0.98-0.15,1.28-0.44c0.3-0.29,0.45-0.63,0.45-1.02c0-0.37-0.14-0.7-0.42-0.98c-0.28-0.29-0.94-0.56-1.98-0.82 c-1.7-0.43-2.91-1-3.64-1.72c-0.73-0.71-1.1-1.62-1.1-2.73c0-0.72,0.19-1.41,0.56-2.06c0.37-0.65,0.94-1.16,1.69-1.53 s1.78-0.55,3.09-0.55c1.6,0,2.83,0.34,3.67,1.01c0.84,0.67,1.34,1.74,1.5,3.21l-3.65,0.24c-0.1-0.64-0.3-1.11-0.61-1.4 c-0.31-0.29-0.74-0.44-1.29-0.44c-0.45,0-0.79,0.11-1.02,0.32c-0.23,0.21-0.34,0.48-0.34,0.79c0,0.22,0.09,0.43,0.28,0.61 c0.18,0.19,0.61,0.36,1.29,0.52c1.69,0.41,2.91,0.83,3.64,1.25c0.73,0.42,1.27,0.94,1.6,1.57c0.33,0.62,0.5,1.32,0.5,2.1 c0,0.91-0.22,1.74-0.67,2.51c-0.45,0.76-1.07,1.35-1.87,1.74c-0.8,0.39-1.8,0.59-3.02,0.59c-2.13,0-3.61-0.46-4.43-1.39 C23.59,102.18,23.12,101.01,23.02,99.58L23.02,99.58z M36.98,28.67h8.16v24.48l-8.16,0V28.67L36.98,28.67z M50.12,28.67h7.52v3.86 h0.11c1.05-1.88,3.61-3.86,7.43-3.86c7.95,0,9.42,4.94,9.42,11.38v13.1l-7.85,0V41.54c0-2.77-0.06-6.33-4.08-6.33 c-4.09,0-4.71,3.01-4.71,6.13v11.82h-7.84V28.67L50.12,28.67L50.12,28.67z M45.14,21.87c0,2.25-1.83,4.08-4.08,4.08 s-4.08-1.83-4.08-4.08c0-2.25,1.83-4.08,4.08-4.08S45.14,19.62,45.14,21.87L45.14,21.87z M36.12,90.1h3.88v4.94h4.24V90.1h3.89 v14.16h-3.89v-5.73h-4.24v5.73h-3.88V90.1L36.12,90.1z M58.43,101.93h-4.4l-0.63,2.33h-3.96l4.73-14.16h4.25l4.71,14.16h-4.06 L58.43,101.93L58.43,101.93z M57.61,98.86l-1.37-5.09l-1.38,5.09H57.61L57.61,98.86z M64.4,104.26V90.1h6.46 c1.2,0,2.12,0.12,2.75,0.35c0.63,0.23,1.15,0.66,1.53,1.29c0.39,0.63,0.58,1.4,0.58,2.3c0,0.79-0.15,1.46-0.45,2.03 c-0.3,0.57-0.7,1.04-1.23,1.39c-0.33,0.22-0.79,0.41-1.36,0.56c0.46,0.17,0.8,0.35,1.01,0.52c0.14,0.12,0.35,0.37,0.62,0.75 c0.27,0.38,0.45,0.68,0.54,0.88l1.88,4.09h-4.38l-2.07-4.32c-0.27-0.56-0.49-0.93-0.7-1.09c-0.28-0.22-0.6-0.33-0.95-0.33H68.3 v5.73H64.4L64.4,104.26z M68.3,95.86h1.64c0.18,0,0.52-0.07,1.03-0.19c0.25-0.06,0.47-0.21,0.63-0.45 c0.16-0.24,0.25-0.51,0.25-0.82c0-0.46-0.13-0.81-0.39-1.05c-0.26-0.25-0.74-0.37-1.45-0.37H68.3V95.86L68.3,95.86z M78,90.1h10.38 v3.03h-6.49v2.25h6.01v2.89h-6.01v2.79h6.68v3.2H78V90.1L78,90.1z"/><polygon class="st1" points="111.58,74.37 0,74.37 0,70.94 111.58,70.94 111.58,74.37"/></g></svg>